<svg xmlns="http://www.w3.org/2000/svg" data-name="‘ëîé_1" viewBox="0 0 4271.368 3200"><defs><clipPath id="k"><path fill="none" d="M1580.44857,1401.59213c-2.5171,0-5.0523-.061-7.5337-.1821a8,8,0,1,1,.7793-15.981c2.2231.1079,4.4956.1631,6.7544.1631a150.4848,150.4848,0,0,0,42.4004-6.187,7.99983,7.99983,0,1,1,4.5078,15.3515A166.46993,166.46993,0,0,1,1580.44857,1401.59213Z"/></clipPath><clipPath id="b"><path fill="none" d="M2671.36017,1175.02913a8.001,8.001,0,0,1-1.8984-15.7715,448.25055,448.25055,0,0,0,49.205-15.1108,7.99973,7.99973,0,1,1,5.5743,14.997,464.11869,464.11869,0,0,1-50.9688,15.6529A8.00684,8.00684,0,0,1,2671.36017,1175.02913Z" clip-path="url(#a)"/></clipPath><clipPath id="c"><path fill="none" d="M1823.10967,1162.637a8.00592,8.00592,0,0,1-7.8315-9.6743c.6953-3.2524,1.2504-6.5288,1.6499-9.7388a83.43166,83.43166,0,0,0,.6279-10.2617,88.788,88.788,0,0,0-4.4238-27.5474,8,8,0,1,1,15.1904-5.0253,104.98339,104.98339,0,0,1,5.2334,32.5727,99.51473,99.51473,0,0,1-.75,12.2373c-.4566,3.668-1.0899,7.4053-1.8814,11.1089A8.00308,8.00308,0,0,1,1823.10967,1162.637Z" clip-path="url(#b)"/></clipPath><clipPath id="d"><path fill="none" d="M1501.78207,1152.61313a8.004,8.004,0,0,1-7.2276-11.4199,445.7801,445.7801,0,0,1,25.6621-46.773,7.99989,7.99989,0,1,1,13.542,8.521,429.776,429.776,0,0,0-24.7383,45.0879A8.00046,8.00046,0,0,1,1501.78207,1152.61313Z" clip-path="url(#c)"/></clipPath><clipPath id="e"><path fill="none" d="M2365.42167,1141.25273a7.95852,7.95852,0,0,1-3.7148-.9199q-1.34625-.7068-2.6875-1.4238c-14.044-7.5127-28.1035-15.9898-42.9834-25.918a7.99969,7.99969,0,1,1,8.8789-13.3096c14.4453,9.6373,28.0693,17.8536,41.6494,25.1177q1.2891.6885,2.5859,1.3706a8.00092,8.00092,0,0,1-3.7285,15.083Z" clip-path="url(#d)"/></clipPath><clipPath id="f"><path fill="none" d="M2784.785,1130.22883a8.00091,8.00091,0,0,1-3.9502-14.9624,410.21462,410.21462,0,0,0,43.0381-28.0596,8.00023,8.00023,0,0,1,9.5703,12.8228,426.42588,426.42588,0,0,1-44.7236,29.1587A7.96558,7.96558,0,0,1,2784.785,1130.22883Z" clip-path="url(#e)"/></clipPath><clipPath id="g"><path fill="none" d="M1723.92167,1075.27863a8.00041,8.00041,0,0,1-4.6225-14.5347c13.2285-9.3437,27.9448-14.2827,42.5576-14.2827h.0029a62.48126,62.48126,0,0,1,13.3535,1.437,7.99992,7.99992,0,1,1-3.4248,15.629,46.45149,46.45149,0,0,0-9.9292-1.066c-11.29-.0005-22.8149,3.9248-33.3286,11.3511A7.963,7.963,0,0,1,1723.92167,1075.27863Z" clip-path="url(#f)"/></clipPath><clipPath id="h"><path fill="none" d="M2264.12187,1073.00713a7.96576,7.96576,0,0,1-4.9336-1.7075c-11.1553-8.7563-22.3789-17.7993-33.2324-26.5439l-7.7813-6.2666a7.99977,7.99977,0,1,1,10.0293-12.4659l7.7901,6.2735c10.8144,8.7134,21.998,17.7231,33.0732,26.417a8.00038,8.00038,0,0,1-4.9453,14.2934Z" clip-path="url(#g)"/></clipPath><clipPath id="i"><path fill="none" d="M1568.69367,1050.68143a8,8,0,0,1-6.0195-13.2651,456.64045,456.64045,0,0,1,37.3881-38.0293,7.99993,7.99993,0,1,1,10.7315,11.8672,440.62926,440.62926,0,0,0-36.0733,36.6924A7.98272,7.98272,0,0,1,1568.69367,1050.68143Z" clip-path="url(#h)"/></clipPath><clipPath id="j"><path fill="none" d="M2168.01347,997.348a7.96206,7.96206,0,0,1-4.7256-1.5503c-15.2446-11.1831-29.2529-20.6939-42.8261-29.0752a8,8,0,1,1,8.4062-13.6138c13.9385,8.6069,28.293,18.3506,43.8838,29.7886a8.00037,8.00037,0,0,1-4.7383,14.4507Z" clip-path="url(#i)"/></clipPath><clipPath id="l"><path fill="none" d="M1660.77077,970.74a8.00071,8.00071,0,0,1-4.3628-14.7114,432.121,432.121,0,0,1,46.48-26.2441,8.00021,8.00021,0,0,1,6.9824,14.3965,416.00425,416.00425,0,0,0-44.7524,25.269A7.96557,7.96557,0,0,1,1660.77077,970.74Z" clip-path="url(#j)"/></clipPath><clipPath id="m"><path fill="none" d="M1508.10377,1379.29183a7.96186,7.96186,0,0,1-4.8232-1.6226,102.85994,102.85994,0,0,1-18.2124-17.7129,110.273,110.273,0,0,1-15.7485-26.7949,7.99988,7.99988,0,0,1,14.7846-6.1162,94.31154,94.31154,0,0,0,13.4551,22.9131,86.88505,86.88505,0,0,0,15.3794,14.9551,8.0004,8.0004,0,0,1-4.835,14.3784Z" clip-path="url(#k)"/></clipPath><clipPath id="n"><path fill="none" d="M1686.19077,1362.07063a8.00038,8.00038,0,0,1-5.001-14.2485,281.67664,281.67664,0,0,0,36.4878-35.5044,7.99986,7.99986,0,1,1,12.0664,10.5068,297.38244,297.38244,0,0,1-38.562,37.4937A7.96755,7.96755,0,0,1,1686.19077,1362.07063Z" clip-path="url(#m)"/></clipPath><clipPath id="o"><path fill="none" d="M1891.96957,1331.762a7.96241,7.96241,0,0,1-4.0166-1.0874l-12.959-7.5361q-16.6926-9.70455-32.3672-18.8643a8,8,0,0,1,8.0889-13.8047c10.4057,6.0972,21.2075,12.3765,32.3198,18.8369l12.9653,7.5396a8.00125,8.00125,0,0,1-4.0312,14.916Z" clip-path="url(#n)"/></clipPath><clipPath id="p"><path fill="none" d="M1765.84987,1269.85283a8.00125,8.00125,0,0,1-6.5922-12.5224q1.1103-1.6209,2.2182-3.2481c-8.7549-6.0024-16.2402-11.4985-22.6172-16.6001a7.99984,7.99984,0,0,1,9.9956-12.4931c6.0552,4.8442,13.1963,10.0864,21.5747,15.833q1.40265-2.08965,2.7256-4.0669c5.1314-7.6626,10.1328-15.1734,14.9043-22.8189a8.00007,8.00007,0,0,1,13.5733,8.4717c-4.897,7.8462-9.9761,15.4751-15.1831,23.25q-1.3125,1.96-2.709,4.0425,3.57855,2.3283,7.4013,4.7602a8.00016,8.00016,0,0,1-8.5898,13.4991q-4.0122-2.5533-7.7651-4.9971-1.16175,1.7058-2.3296,3.4106A7.99177,7.99177,0,0,1,1765.84987,1269.85283Z" clip-path="url(#o)"/></clipPath><clipPath id="q"><path fill="none" d="M1467.72347,1269.43733c-.2095,0-.4199-.0083-.6324-.0249a7.99994,7.99994,0,0,1-7.352-8.5991,273.15764,273.15764,0,0,1,9.4277-51.5747l.4034-1.438a7.99995,7.99995,0,1,1,15.3969,4.3511l-.3847,1.372a257.16246,257.16246,0,0,0-8.8921,48.5367A8.00086,8.00086,0,0,1,1467.72347,1269.43733Z" clip-path="url(#p)"/></clipPath><clipPath id="r"><path fill="none" d="M2561.85917,1188.282c-3.9668,0-7.9883-.0522-11.9531-.1548a8,8,0,0,1,.415-15.9946,450.75742,450.75742,0,0,0,51.4492-1.6284,7.99982,7.99982,0,1,1,1.42,15.9365C2589.47737,1187.66243,2575.57207,1188.282,2561.85917,1188.282Z" clip-path="url(#q)"/></clipPath><clipPath id="s"><path fill="none" d="M1700.75127,1185.075a8.00044,8.00044,0,0,1-7.2949-4.7085c-7.2315-16.0083-10.898-32.1426-10.898-47.9556,0-2.2719.0786-4.5634.2339-6.8115a8,8,0,0,1,15.9619,1.1021c-.1298,1.8823-.1958,3.8032-.1958,5.7094,0,13.5259,3.1895,27.4449,9.479,41.3687a8.0039,8.0039,0,0,1-7.2861,11.2954Z" clip-path="url(#r)"/></clipPath><clipPath id="a"><path fill="none" d="M2480.67857,1180.86023a8.02879,8.02879,0,0,1-1.4727-.1368,431.10573,431.10573,0,0,1-51.7773-12.9853,7.99981,7.99981,0,0,1,4.8554-15.2451,415.11719,415.11719,0,0,0,49.8496,12.5009,8.00073,8.00073,0,0,1-1.455,15.8663Z" clip-path="url(#s)"/></clipPath></defs><path fill="#c8def4" d="M2513.71027,1018.39693l-512.5594-92.6326a15.34813,15.34813,0,0,1-5.3896-28.1289l213.9949-133.4115a15.34866,15.34866,0,0,1,19.3118,2.5214l54.9,58.5013,71.9024-35.5848a15.34882,15.34882,0,0,1,18.9727,4.3976l153.7615,199.8745a15.3481,15.3481,0,0,1-14.8943,24.463Zm-467.9424-115.7634,434.2439,78.4791-121.8164-158.3498-70.8186,35.0496a15.35248,15.35248,0,0,1-18.0006-3.2532l-54.0722-57.6206Z"/><path fill="#c8def4" d="M2001.148,925.76373a15.34553,15.34553,0,0,1-12.3712-17.8328l54.7757-303.0874a15.34819,15.34819,0,0,1,26.2963-7.774l159.2192,169.6758a15.34891,15.34891,0,0,1-3.0734,23.5287l-213.9948,133.4115A15.34883,15.34883,0,0,1,2001.148,925.76373Zm67.1874-285.4451-43.1934,238.9995,168.7462-105.201Z"/><path fill="#c8def4" d="M2513.71317,1018.39753a15.34924,15.34924,0,0,1-9.4379-5.7451l-153.7615-199.8746a15.34881,15.34881,0,0,1,5.3566-23.116l208.5371-103.2129a15.34831,15.34831,0,0,1,21.9119,16.4865l-54.7757,303.0874a15.346,15.346,0,0,1-17.8305,12.3747Zm-127.4687-209.5166,121.2493,157.6106,43.1934-238.9996Z"/><path fill="#c8def4" d="M2277.83907,859.15933a15.33058,15.33058,0,0,1-8.4629-4.6001l-221.9125-236.4825a15.34875,15.34875,0,0,1,13.9222-25.6074l512.5593,92.6327a15.34873,15.34873,0,0,1,4.0785,28.8606l-290.6469,143.8498A15.33127,15.33127,0,0,1,2277.83907,859.15933Zm-176.2118-228.2231,182.3407,194.3104,238.8172-118.1964Z"/><path fill="#c8def4" d="M3541.35007,2249.46143l-556.7475-240.0446a17.86544,17.86544,0,0,1,1.2988-33.3127l277.7736-94.8946a17.86608,17.86608,0,0,1,21.2319,7.9459l46.8364,80.7913,90.8977-21.4065a17.86616,17.86616,0,0,1,20.3532,9.9838l121.6872,267.1242a17.8654,17.8654,0,0,1-23.3313,23.8132Zm-500.067-254.5178,471.6804,203.3675-96.4056-211.628-89.5279,21.0851a17.87053,17.87053,0,0,1-19.5525-8.4302l-46.1298-79.5746Z"/><path fill="#c8def4" d="M2984.59937,2009.41543a17.86282,17.86282,0,0,1-9.3292-23.478l141.9436-329.2168a17.8656,17.8656,0,0,1,31.863-1.8874l135.8301,234.3222a17.86636,17.86636,0,0,1-9.6824,25.8676l-277.7736,94.8946A17.8662,17.8662,0,0,1,2984.59937,2009.41543Zm151.369-305.9443-111.9296,259.6039,219.0388-74.8283Z"/><path fill="#c8def4" d="M3541.35327,2249.46283a17.86678,17.86678,0,0,1-9.1876-9l-121.6872-267.1243a17.8664,17.8664,0,0,1,12.1625-24.7983l263.6308-62.0925a17.86557,17.86557,0,0,1,20.5012,24.4646l-141.9435,329.2167a17.86277,17.86277,0,0,1-23.4762,9.3338Zm-89.3362-271.1307,95.9574,210.6406,111.9296-259.6039Z"/><path fill="#c8def4" d="M3315.86107,2006.783a17.84584,17.84584,0,0,1-8.3836-7.445l-189.3149-326.583a17.86613,17.86613,0,0,1,22.5306-25.3668l556.7474,240.0447a17.86609,17.86609,0,0,1-2.9781,33.7969l-367.4325,86.5384A17.84591,17.84591,0,0,1,3315.86107,2006.783Zm-139.6743-305.1802,155.5565,268.3439,301.9097-71.1049Z"/><path fill="#c8def4" d="M1311.28867,1709.98993l-574.373,250.196a18.46093,18.46093,0,0,1-24.2009-24.5166l124.7099-276.4964a18.46155,18.46155,0,0,1,20.9929-10.3952l94.0112,21.7678,48.0833-83.6639a18.46156,18.46156,0,0,1,21.9087-8.2927l287.3971,96.9832a18.46095,18.46095,0,0,1,1.4708,34.4178Zm-545.2382,197.2314,486.6129-211.9679-227.6887-76.8349-47.3579,82.404a18.4661,18.4661,0,0,1-20.1714,8.7867l-92.5946-21.441Z"/><path fill="#c8def4" d="M736.91237,1960.18733a18.458,18.458,0,0,1-24.2946-9.5541l-147.94632-339.6391a18.461,18.461,0,0,1,21.0899-25.359l272.65622,63.1426a18.46192,18.46192,0,0,1,12.6636,25.5777l-124.7099,276.4965A18.46182,18.46182,0,0,1,736.91237,1960.18733Zm-123.73872-330.3028,116.663,267.8225,98.341-218.031Z"/><path fill="#c8def4" d="M1311.292,1709.98843a18.46176,18.46176,0,0,1-13.2778.5687l-287.3971-96.9833a18.46179,18.46179,0,0,1-10.105-26.6922l139.4508-242.6559a18.461,18.461,0,0,1,32.9321,1.8272l147.9463,339.6391a18.458,18.458,0,0,1-9.5493,24.2964Zm-267.5602-124.2074,226.6274,76.4752-116.6631-267.8224Z"/><path fill="#c8def4" d="M968.98257,1708.548a18.44048,18.44048,0,0,1-11.5372,1.0612l-380.01322-88.0013a18.46163,18.46163,0,0,1-3.208-34.9117l574.37292-250.196a18.46167,18.46167,0,0,1,23.3795,26.1251l-194.3598,338.1972A18.43965,18.43965,0,0,1,968.98257,1708.548Zm-328.80113-110.3092,312.24733,72.3067,159.7014-277.8868Z"/><path fill="#c8def4" d="M3375.98467,1743.96413q-1.4409,8.26245-3.1072,16.5192c-10.1604,50.1535-26.3438,99.7921-46.0859,146.6592q-3.86235,9.14775-7.8807,18.1393a928.21074,928.21074,0,0,1-62.6341,116.728q-6.197,9.7812-12.6366,19.4065c-95.4991,143.0313-228.2138,259.493-379.1952,341.5913-.4513.2432-.8969.4861-1.3482.7291q-16.5423,8.9742-33.3739,17.3814-6.7524,3.38475-13.5569,6.6713-45.2091,21.87135-92.137,39.6635a1265.69707,1265.69707,0,0,1-146.7402,45.4956q-11.769,2.8989-23.6188,5.5835-25.30815,5.73705-50.9577,10.5192-45.68685,8.5662-92.2414,14.1121c-167.4369,20.043-341.603,11.2367-507.8944-25.5859q-5.789-1.28445-11.5721-2.6095c-159.4059-36.6315-311.2204-99.1036-442.483-186.6871q-7.48125-4.9818-14.8818-10.091-18.21735-12.5847-35.6825-25.8983c-.1331-.0984-.2604-.2025-.3935-.3008q-7.29915-5.5722-14.4594-11.2713-29.44815-23.40765-56.5876-48.8749-10.77945-10.0851-21.1886-20.5a931.164,931.164,0,0,1-121.7271-149.9282,949.72285,949.72285,0,0,1-51.9993-90.0717q-11.5344-22.748-21.8307-46.0628a988.12539,988.12539,0,0,1-8.5519-775.4474c72.9333-175.6995,216.1729-402.1658,430.0372-406.7078,229.4635-4.872,382.6957,205.9662,552.852,326.6982,163.5199,116.0278,350.1086,184.8529,549.3978,205.5844,214.0554,22.2763,499.9038-44.952,664.0369,134.6126,45.7042,50.0147,71.0645,108.5232,81.3868,170.7003C3387.69547,1633.49093,3385.624,1688.89243,3375.98467,1743.96413Z"/><path fill="#262f5f" d="M2586.27917,2229.15623c7.0827,115.3922,103.0276,155.4,196.9987,96.8582,114.2185-71.1554,119.6544-231.4708,223.1396-313.2388C2880.68537,2081.32693,2618.17087,2043.016,2586.27917,2229.15623Z"/><path fill="#211f44" d="M2601.281,2279.88563c33.3783,62.5255,131.5813,8.174,164.4394-23.8993,52.7988-51.5378,71.2486-127.263,85.223-197.0755-64.473,11.7607-126.5453,18.9614-174.9257,64.5185C2645.713,2151.96563,2575.82657,2232.20533,2601.281,2279.88563Z"/><path fill="#262f5f" d="M2365.60907,2219.77473c6.5532,129.4145,174.8412,131.5197,263.9095,95.8598,120.4825-48.2372,139.0339-154.6306,188.9567-260.7101,21.5889-45.8736,48.8209-88.3475,96.0509-111.2623,49.3957-23.9654,118.6427-13.0648,155.6376-60.5497,31.4892-40.4184,14.5992-94.977,18.8154-141.2753,6.5068-71.4533,38.9989-107.9811,84.4491-157.9008,106.2449-116.693-47.284-120.1033-126.6369-53.2462-31.4977,26.5377-53.093,60.334-88.296,82.9964-50.9806,32.8197-117.0375,43.175-173.0673,65.3207-121.5347,48.0365-238.6778,111.2512-308.7161,225.279C2426.25517,1986.43383,2360.54067,2120.19863,2365.60907,2219.77473Z"/><path fill="#211f44" d="M2365.60907,2219.77473c7.1002,140.219,170.2252,98.805,261.5644,88.9697-15.2301-1.7976-49.5483,1.8842-60.5443-7.146-22.9501-18.8474-21.5007-102.9282-21.2972-131.5384.7441-104.6363,35.0742-198.2465,99.2382-280.0136,110.139-140.3551,301.4099-206.9991,396.8687-354.3903-73.1307,69.828-124.8784,96.0065-219.8965,129.862-92.8879,33.0966-193.3563,76.6503-267.3779,143.4404C2459.28937,1894.56483,2358.87207,2087.41623,2365.60907,2219.77473Z"/><path fill="#262f5f" d="M1797.37407,2228.33373c-7.0827,115.3922-103.0277,155.4-196.9987,96.8582-114.2184-71.1554-119.6544-231.4708-223.1395-313.2388C1502.96787,2080.50443,1765.48237,2042.19353,1797.37407,2228.33373Z"/><path fill="#211f44" d="M1782.37237,2279.06313c-33.3785,62.5255-131.5814,8.174-164.4394-23.8993-52.7989-51.5378-71.2487-127.263-85.2232-197.0755,64.4732,11.7607,126.5454,18.9614,174.9258,64.5185C1737.94037,2151.14313,1807.82667,2231.38283,1782.37237,2279.06313Z"/><path fill="#262f5f" d="M2018.04407,2218.95223c-6.553,129.4145-174.8411,131.5197-263.9094,95.8598-120.4825-48.2372-139.0339-154.6306-188.9567-260.7101-21.5889-45.8736-48.8209-88.3475-96.0508-111.2623-49.3958-23.9654-118.6428-13.0648-155.6376-60.5497-31.4894-40.4184-14.5992-94.977-18.8154-141.2753-6.507-71.4533-38.999-107.9811-84.4491-157.9008-106.245-116.693,47.2838-120.1033,126.6369-53.2462,31.4976,26.5377,53.0929,60.334,88.2958,82.9964,50.9807,32.8197,117.0376,43.175,173.0674,65.3207,121.5346,48.0365,238.6779,111.2512,308.7162,225.279C1957.39807,1985.61133,2023.11257,2119.37613,2018.04407,2218.95223Z"/><path fill="#211f44" d="M2018.04407,2218.95223c-7.1002,140.219-170.225,98.805-261.5643,88.9697,15.2301-1.7976,49.5483,1.8843,60.5443-7.146,22.9502-18.8474,21.5007-102.9282,21.2973-131.5384-.7442-104.6363-35.0743-198.2465-99.2383-280.0136-110.1389-140.3551-301.4099-206.9991-396.8688-354.3903,73.1308,69.828,124.8785,96.0065,219.8966,129.862,92.8879,33.0966,193.3563,76.6503,267.3779,143.4404C1924.364,1893.74233,2024.78117,2086.59373,2018.04407,2218.95223Z"/><path fill="#c8def4" d="M2131.03787,2607.77623c-42.3833,0-84.6655-1.7217-126.5874-5.1905q-6.02415-.50235-12.0361-1.0429a1455.28577,1455.28577,0,0,1-244.1895-43.0694c-80.3759-21.5205-157.2065-49.9941-228.3574-84.6308-4.957-2.4063-10.3325-5.0723-16.4253-8.1475-13.5727-6.8799-26.938-14.0508-39.7417-21.3222v-.001l-.437-.2481c-5.4653-3.1045-10.9194-6.2763-16.2119-9.4277-21.8677-12.9961-43.4307-27.0322-64.082-41.7129-8.2139-5.8242-16.3941-11.832-24.3028-17.8506a954.3313,954.3313,0,0,1-144.0097-135.0947,974.6727,974.6727,0,0,1-65.1006-84.0635c-9.8213-14.2148-19.3989-28.8984-28.4649-43.6426a1001.55762,1001.55762,0,0,1-125.456-311.913,1007.72827,1007.72827,0,0,1,9.8442-472.1055c21.0288-79.6636,60.2124-195.2407,127.4644-293.4551,71.2651-104.0752,157.4892-164.7549,256.2773-180.3535,171.1177-27.021,314.9068,68.0845,453.9649,160.0566,51.8808,34.3135,100.8847,66.7242,151.0835,92.9683a1143.293,1143.293,0,0,0,278.3608,102.2817,1175.76617,1175.76617,0,0,0,295.416,27.6377c57.2735-1.8149,117.9854-10.4853,182.2617-19.665,88.0772-12.5781,179.1524-25.582,266.0284-20.8545,99.3418,5.4092,178.6699,33.9102,242.5156,87.1309,51.0732,42.5859,87.4345,98.0253,108.0752,164.7802,15.4433,49.9229,22.0986,106.2486,19.7812,167.4004h0c-.2138,5.7324-.5078,11.5366-.873,17.252-3.2119,49.7265-12.128,101.9717-26.501,155.29-1.7949,6.6401-3.6387,13.1895-5.4834,19.4736a945.39558,945.39558,0,0,1-47.3555,126.9239c-3.3496,7.3164-6.7568,14.5205-10.1269,21.4111-74.7969,153.5342-191.1817,291.1279-336.5654,397.8936l-1.2989.9482c-10.3076,7.5547-20.8594,15.0166-31.3222,22.1504-4.0479,2.7695-8.2334,5.5879-12.7823,8.6074-28.333,18.8057-57.8418,36.5693-87.708,52.7988a1294.78213,1294.78213,0,0,1-141.9931,66.1612c-7.7373,3.0615-15.5069,6.0527-23.085,8.8877-16.3955,6.1386-33.2217,12.0713-50.0078,17.6299-29.6934,9.8632-60.3711,18.9248-91.1729,26.9277C2395.325,2591.14433,2262.73517,2607.77623,2131.03787,2607.77623Zm-657.8296-181.2725c.1187.0654.2359.1328.3536.2012l.1303.0742c12.5274,7.1143,25.6089,14.1328,38.8819,20.8613,5.9824,3.0186,11.267,5.6407,16.1396,8.0059,70.0015,34.0762,145.6133,62.0947,224.7441,83.2822a1434.98284,1434.98284,0,0,0,240.7847,42.4639q5.93775.5391,11.8819,1.0303c169.9345,14.0566,346.0229-.9522,509.2182-43.4082,30.3721-7.8916,60.6152-16.8243,89.8945-26.5498,16.5498-5.4805,33.129-11.3262,49.2842-17.375,7.4639-2.792,15.1133-5.7374,22.7383-8.7549a1274.6041,1274.6041,0,0,0,139.7725-65.1221c29.3457-15.9473,58.3398-33.4014,86.1777-51.8779,4.4697-2.9668,8.5791-5.7344,12.5615-8.459,10.2871-7.0147,20.6494-14.3428,30.8115-21.791l1.2823-.9356c142.7129-104.8037,256.9492-239.8222,330.3213-390.4326,3.3017-6.751,6.6347-13.7978,9.913-20.959a925.05876,925.05876,0,0,0,46.3379-124.1982c1.8038-6.146,3.6084-12.5557,5.3643-19.0498,14.0225-52.0186,22.7178-102.9302,25.8428-151.3145.3535-5.5303.6386-11.1538.8457-16.708v-.0063c2.2314-58.8677-4.125-112.9224-18.8916-160.6621-19.4668-62.9566-53.6846-115.1792-101.7022-155.2173-32.3144-26.937-67.9248-46.7349-108.8652-60.524-36.4922-12.291-76.3311-19.4692-121.7949-21.9448-84.8838-4.6211-174.96,8.2417-262.0674,20.6812-64.8447,9.2607-126.0928,18.0073-184.4815,19.8579a1196.02374,1196.02374,0,0,1-300.5019-28.1216,1163.52288,1163.52288,0,0,1-283.2896-104.0898c-51.1196-26.7256-102.8466-60.9375-152.8711-94.023-135.8354-89.8403-276.2954-182.7388-439.6474-156.9473-93.0733,14.6963-174.7422,72.4986-242.7388,171.7994-65.6186,95.8295-103.9741,209.0673-124.5957,287.1875a989.523,989.523,0,0,0,113.2837,768.2563c8.8784,14.4395,18.2578,28.8193,27.8779,42.7422a954.32318,954.32318,0,0,0,63.7461,82.3144,934.06967,934.06967,0,0,0,140.959,132.2344c7.7383,5.8887,15.7339,11.7608,23.773,17.4619,20.2138,14.3692,41.3105,28.1006,62.7133,40.8213C1462.56137,2420.38263,1467.87917,2423.47543,1473.20827,2426.50373Z"/><path fill="#c8def4" d="M1153.96087,1005.98513s84.4229-118.2085,168.8458-180.4372l-75.8293,171.7723Z"/><path fill="#262f5f" d="M2731.53527,1617.87113l-26.6591,165.3541-5.1173,31.7364c0,24.5723-52.4957,348.2771-79.6869,348.2771l-429.981-297.1056-477.2091,331.0995c-27.1812,0-55.767-348.3374-55.767-372.9097l-1.8965-41.0977-7.6154-164.8725,76.7171-66.2922,435.098-375.99c17.9503-12.9233,43.3954-12.9233,61.3457,0l434.6867,375.99Z"/><rect width="843.537" height="795.22" x="1770.058" y="1365.665" fill="#fff"/><polygon fill="#749dd3" points="2190.153 2050.551 1647.603 1618.353 1647.603 2353.101 2731.535 2353.101 2731.535 1618.353 2190.153 2050.551"/><polygon fill="#9ebee5" points="1647.603 1618.353 1647.603 2353.101 2108.778 1985.727 1647.603 1618.353"/><polygon fill="#9ebee5" points="2731.535 1618.353 2731.535 2353.101 2270.36 1985.727 2731.535 1618.353"/><path fill="#fff" d="M2684.66227,2308.51573a7.48193,7.48193,0,0,1,7.482-7.4817v-6.6934a7.4819,7.4819,0,1,1,0-14.9638v-6.6932a7.482,7.482,0,0,1,0-14.964v-6.6931a7.482,7.482,0,0,1,0-14.964v-6.6932a7.482,7.482,0,0,1,0-14.964v-5.7979h-5.8034c.0005.036.0053.071.0053.1074a7.4819,7.4819,0,0,1-14.9638,0c0-.0364.0048-.0714.0055-.1074h-6.7043c.0006.036.0055.071.0055.1074a7.482,7.482,0,0,1-14.9639,0c0-.0364.0049-.0714.0055-.1074h-6.7042c.0004.036.0055.071.0055.1074a7.482,7.482,0,0,1-14.9639,0c0-.0364.0047-.0714.0055-.1074h-6.7043c.0007.036.0055.071.0055.1074a7.482,7.482,0,0,1-14.964,0c0-.0364.0051-.0714.0055-.1074h-6.7041c.0007.036.0055.071.0055.1074a7.482,7.482,0,0,1-14.964,0c0-.0364.005-.0714.0055-.1074h-5.8035v5.7979a7.482,7.482,0,0,1,0,14.964v6.6932a7.482,7.482,0,1,1,0,14.964v6.6931a7.482,7.482,0,0,1,0,14.964v6.6932a7.4819,7.4819,0,1,1,0,14.9638v6.6934a7.48185,7.48185,0,1,1,0,14.9637v5.7982h5.798a7.482,7.482,0,0,1,14.964,0h6.6931a7.482,7.482,0,0,1,14.964,0h6.6933a7.482,7.482,0,0,1,14.9639,0h6.6932a7.482,7.482,0,0,1,14.9639,0h6.6933a7.4819,7.4819,0,1,1,14.9638,0h5.7981v-5.7982A7.482,7.482,0,0,1,2684.66227,2308.51573Z"/><path fill="#fff" d="M2514.76547,2308.51573a7.48193,7.48193,0,0,1,7.482-7.4817v-6.6934a7.4819,7.4819,0,1,1,0-14.9638v-6.6932a7.482,7.482,0,0,1,0-14.964v-6.6931a7.482,7.482,0,1,1,0-14.964v-6.6932a7.482,7.482,0,0,1,0-14.964v-5.7979h-5.8034c.0005.036.0053.071.0053.1074a7.4819,7.4819,0,0,1-14.9638,0c0-.0364.0048-.0714.0055-.1074h-6.7042c.0005.036.0055.071.0055.1074a7.482,7.482,0,0,1-14.964,0c0-.0364.0049-.0714.0055-.1074h-6.7042c.0004.036.0055.071.0055.1074a7.482,7.482,0,0,1-14.9639,0c0-.0364.0048-.0714.0055-.1074h-6.7043c.0007.036.0055.071.0055.1074a7.482,7.482,0,0,1-14.964,0c0-.0364.0051-.0714.0055-.1074h-6.7041c.0007.036.0055.071.0055.1074a7.482,7.482,0,0,1-14.964,0c0-.0364.005-.0714.0055-.1074h-5.8035v5.7979a7.482,7.482,0,0,1,0,14.964v6.6932a7.482,7.482,0,0,1,0,14.964v6.6931a7.482,7.482,0,0,1,0,14.964v6.6932a7.4819,7.4819,0,1,1,0,14.9638v6.6934a7.48185,7.48185,0,1,1,0,14.9637v5.7982h5.798a7.482,7.482,0,0,1,14.964,0h6.6931a7.482,7.482,0,0,1,14.964,0h6.6933a7.482,7.482,0,0,1,14.9639,0h6.6932a7.482,7.482,0,0,1,14.964,0h6.6932a7.4819,7.4819,0,1,1,14.9638,0h5.7981v-5.7982A7.482,7.482,0,0,1,2514.76547,2308.51573Z"/><circle cx="2189.569" cy="1688.806" r="152.79" fill="#749dd3"/><path fill="#262f5f" d="M2189.56867,1888.94683c-110.3585,0-200.141-89.783-200.141-200.1415s89.7825-200.1414,200.141-200.1414,200.1419,89.783,200.1419,200.1414S2299.92707,1888.94683,2189.56867,1888.94683Zm0-377.7092c-97.9107,0-177.5673,79.6566-177.5673,177.5677s79.6566,177.5678,177.5673,177.5678c97.9116,0,177.5683-79.6566,177.5683-177.5678S2287.48027,1511.23763,2189.56867,1511.23763Z"/><path fill="#fff" d="M2178.30127,1698.94653l-3.2777-49.0675q-.922-14.34-.9226-20.5897,0-8.50155,4.4563-13.2658a15.30868,15.30868,0,0,1,11.729-4.7631q8.8095,0,11.7798,6.0946,2.9709,6.0966,2.9709,17.5681a134.57667,134.57667,0,0,1-.7163,13.7271l-4.4055,50.5016q-.7173,9.015-3.0724,13.8291a8.05036,8.05036,0,0,1-7.7859,4.8144q-5.53065,0-7.6832-4.661Q2179.22327,1708.47413,2178.30127,1698.94653Zm11.3703,67.4042a16.119,16.119,0,0,1-10.909-4.0463q-4.66275-4.0452-4.6616-11.3196a15.21631,15.21631,0,0,1,15.3654-15.2633,15.18022,15.18022,0,0,1,11.0127,4.4564,14.55644,14.55644,0,0,1,4.5579,10.8069q0,7.1718-4.6098,11.2683A15.68625,15.68625,0,0,1,2189.67157,1766.35073Z"/><polygon fill="#9ebee5" points="3114.164 833.232 3043.521 1062.661 3032.202 1099.423 2999.93 1072.191 2915.582 1001.029 3114.164 833.232"/><polygon fill="#9ebee5" points="3114.16 833.232 2868.729 974.981 2757.09 937.983 3114.16 833.232"/><polygon fill="#749dd3" points="3114.16 833.232 2915.585 1001.031 2877.419 1077.339 2868.729 974.981 3114.16 833.232"/><path fill="#fff" d="M1580.44857,1401.59213c-2.5171,0-5.0523-.061-7.5337-.1821a8,8,0,1,1,.7793-15.981c2.2231.1079,4.4956.1631,6.7544.1631a150.4848,150.4848,0,0,0,42.4004-6.187,7.99983,7.99983,0,1,1,4.5078,15.3515A166.46993,166.46993,0,0,1,1580.44857,1401.59213Z"/><path fill="#fff" d="M1508.10377,1379.29183a7.96186,7.96186,0,0,1-4.8232-1.6226,102.85994,102.85994,0,0,1-18.2124-17.7129,110.273,110.273,0,0,1-15.7485-26.7949,7.99988,7.99988,0,0,1,14.7846-6.1162,94.31154,94.31154,0,0,0,13.4551,22.9131,86.88505,86.88505,0,0,0,15.3794,14.9551,8.0004,8.0004,0,0,1-4.835,14.3784Z"/><path fill="#fff" d="M1686.19077,1362.07063a8.00038,8.00038,0,0,1-5.001-14.2485,281.67664,281.67664,0,0,0,36.4878-35.5044,7.99986,7.99986,0,1,1,12.0664,10.5068,297.38244,297.38244,0,0,1-38.562,37.4937A7.96755,7.96755,0,0,1,1686.19077,1362.07063Z"/><path fill="#fff" d="M1891.96957,1331.762a7.96241,7.96241,0,0,1-4.0166-1.0874l-12.959-7.5361q-16.6926-9.70455-32.3672-18.8643a8,8,0,0,1,8.0889-13.8047c10.4057,6.0972,21.2075,12.3765,32.3198,18.8369l12.9653,7.5396a8.00125,8.00125,0,0,1-4.0312,14.916Z"/><path fill="#fff" d="M1765.84987,1269.85283a8.00125,8.00125,0,0,1-6.5922-12.5224q1.1103-1.6209,2.2182-3.2481c-8.7549-6.0024-16.2402-11.4985-22.6172-16.6001a7.99984,7.99984,0,0,1,9.9956-12.4931c6.0552,4.8442,13.1963,10.0864,21.5747,15.833q1.40265-2.08965,2.7256-4.0669c5.1314-7.6626,10.1328-15.1734,14.9043-22.8189a8.00007,8.00007,0,0,1,13.5733,8.4717c-4.897,7.8462-9.9761,15.4751-15.1831,23.25q-1.3125,1.96-2.709,4.0425,3.57855,2.3283,7.4013,4.7602a8.00016,8.00016,0,0,1-8.5898,13.4991q-4.0122-2.5533-7.7651-4.9971-1.16175,1.7058-2.3296,3.4106A7.99177,7.99177,0,0,1,1765.84987,1269.85283Z"/><path fill="#fff" d="M1467.72347,1269.43733c-.2095,0-.4199-.0083-.6324-.0249a7.99994,7.99994,0,0,1-7.352-8.5991,273.15764,273.15764,0,0,1,9.4277-51.5747l.4034-1.438a7.99995,7.99995,0,1,1,15.3969,4.3511l-.3847,1.372a257.16246,257.16246,0,0,0-8.8921,48.5367A8.00086,8.00086,0,0,1,1467.72347,1269.43733Z"/><path fill="#c8def4" d="M2561.85917,1188.282c-3.9668,0-7.9883-.0522-11.9531-.1548a8,8,0,0,1,.415-15.9946,450.75742,450.75742,0,0,0,51.4492-1.6284,7.99982,7.99982,0,1,1,1.42,15.9365C2589.47737,1187.66243,2575.57207,1188.282,2561.85917,1188.282Z"/><path fill="#fff" d="M1700.75127,1185.075a8.00044,8.00044,0,0,1-7.2949-4.7085c-7.2315-16.0083-10.898-32.1426-10.898-47.9556,0-2.2719.0786-4.5634.2339-6.8115a8,8,0,0,1,15.9619,1.1021c-.1298,1.8823-.1958,3.8032-.1958,5.7094,0,13.5259,3.1895,27.4449,9.479,41.3687a8.0039,8.0039,0,0,1-7.2861,11.2954Z"/><path fill="#c8def4" d="M2480.67857,1180.86023a8.02879,8.02879,0,0,1-1.4727-.1368,431.10573,431.10573,0,0,1-51.7773-12.9853,7.99981,7.99981,0,0,1,4.8554-15.2451,415.11719,415.11719,0,0,0,49.8496,12.5009,8.00073,8.00073,0,0,1-1.455,15.8663Z"/><path fill="#c8def4" d="M2671.36017,1175.02913a8.001,8.001,0,0,1-1.8984-15.7715,448.25055,448.25055,0,0,0,49.205-15.1108,7.99973,7.99973,0,1,1,5.5743,14.997,464.11869,464.11869,0,0,1-50.9688,15.6529A8.00684,8.00684,0,0,1,2671.36017,1175.02913Z"/><path fill="#fff" d="M1823.10967,1162.637a8.00592,8.00592,0,0,1-7.8315-9.6743c.6953-3.2524,1.2504-6.5288,1.6499-9.7388a83.43166,83.43166,0,0,0,.6279-10.2617,88.788,88.788,0,0,0-4.4238-27.5474,8,8,0,1,1,15.1904-5.0253,104.98339,104.98339,0,0,1,5.2334,32.5727,99.51473,99.51473,0,0,1-.75,12.2373c-.4566,3.668-1.0899,7.4053-1.8814,11.1089A8.00308,8.00308,0,0,1,1823.10967,1162.637Z"/><path fill="#fff" d="M1501.78207,1152.61313a8.004,8.004,0,0,1-7.2276-11.4199,445.7801,445.7801,0,0,1,25.6621-46.773,7.99989,7.99989,0,1,1,13.542,8.521,429.776,429.776,0,0,0-24.7383,45.0879A8.00046,8.00046,0,0,1,1501.78207,1152.61313Z"/><path fill="#c8def4" d="M2365.42167,1141.25273a7.95852,7.95852,0,0,1-3.7148-.9199q-1.34625-.7068-2.6875-1.4238c-14.044-7.5127-28.1035-15.9898-42.9834-25.918a7.99969,7.99969,0,1,1,8.8789-13.3096c14.4453,9.6373,28.0693,17.8536,41.6494,25.1177q1.2891.6885,2.5859,1.3706a8.00092,8.00092,0,0,1-3.7285,15.083Z"/><path fill="#c8def4" d="M2784.785,1130.22883a8.00091,8.00091,0,0,1-3.9502-14.9624,410.21462,410.21462,0,0,0,43.0381-28.0596,8.00023,8.00023,0,0,1,9.5703,12.8228,426.42588,426.42588,0,0,1-44.7236,29.1587A7.96558,7.96558,0,0,1,2784.785,1130.22883Z"/><path fill="#fff" d="M1723.92167,1075.27863a8.00041,8.00041,0,0,1-4.6225-14.5347c13.2285-9.3437,27.9448-14.2827,42.5576-14.2827h.0029a62.48126,62.48126,0,0,1,13.3535,1.437,7.99992,7.99992,0,1,1-3.4248,15.629,46.45149,46.45149,0,0,0-9.9292-1.066c-11.29-.0005-22.8149,3.9248-33.3286,11.3511A7.963,7.963,0,0,1,1723.92167,1075.27863Z"/><path fill="#c8def4" d="M2264.12187,1073.00713a7.96576,7.96576,0,0,1-4.9336-1.7075c-11.1553-8.7563-22.3789-17.7993-33.2324-26.5439l-7.7813-6.2666a7.99977,7.99977,0,1,1,10.0293-12.4659l7.7901,6.2735c10.8144,8.7134,21.998,17.7231,33.0732,26.417a8.00038,8.00038,0,0,1-4.9453,14.2934Z"/><path fill="#fff" d="M1568.69367,1050.68143a8,8,0,0,1-6.0195-13.2651,456.64045,456.64045,0,0,1,37.3881-38.0293,7.99993,7.99993,0,1,1,10.7315,11.8672,440.62926,440.62926,0,0,0-36.0733,36.6924A7.98272,7.98272,0,0,1,1568.69367,1050.68143Z"/><path fill="#c8def4" d="M2168.01347,997.348a7.96206,7.96206,0,0,1-4.7256-1.5503c-15.2446-11.1831-29.2529-20.6939-42.8261-29.0752a8,8,0,1,1,8.4062-13.6138c13.9385,8.6069,28.293,18.3506,43.8838,29.7886a8.00037,8.00037,0,0,1-4.7383,14.4507Z"/><path fill="#fff" d="M1660.77077,970.74a8.00071,8.00071,0,0,1-4.3628-14.7114,432.121,432.121,0,0,1,46.48-26.2441,8.00021,8.00021,0,0,1,6.9824,14.3965,416.00425,416.00425,0,0,0-44.7524,25.269A7.96557,7.96557,0,0,1,1660.77077,970.74Z"/><path fill="#c8def4" d="M2062.61457,935.91293a7.97535,7.97535,0,0,1-3.0645-.6133,422.18535,422.18535,0,0,0-48.603-16.7593,8,8,0,1,1,4.2871-15.415,438.30443,438.30443,0,0,1,50.4517,17.397,8.00147,8.00147,0,0,1-3.0713,15.3906Z"/><path fill="#fff" d="M1771.54037,919.94023a8.00122,8.00122,0,0,1-2.2315-15.6836,440.907,440.907,0,0,1,52.0518-11.7485,8.00013,8.00013,0,0,1,2.5732,15.792,424.62136,424.62136,0,0,0-50.1553,11.3198A8.0147,8.0147,0,0,1,1771.54037,919.94023Z"/><path fill="#c8def4" d="M1944.55837,905.51933a8.03259,8.03259,0,0,1-.9135-.0517,441.54927,441.54927,0,0,0-49.67-2.8125l-1.7065.0034h-.0347a8,8,0,0,1-.0327-16l1.7739-.0034a457.60175,457.60175,0,0,1,51.4766,2.915,8.0002,8.0002,0,0,1-.8931,15.9492Z"/></svg>